<mxfile host="app.diagrams.net" modified="2023-02-12T19:41:58.198Z" agent="5.0 (Windows NT 10.0; Win64; x64) AppleWebKit/537.36 (KHTML, like Gecko) Chrome/109.0.0.0 Safari/537.36" etag="K5J7HezWStZDcrdHkrio" version="20.8.20" type="github">
  <diagram name="Страница 1" id="8D5e6CIdS5LXI-yu4CyA">
    <mxGraphModel dx="1195" dy="657" grid="1" gridSize="10" guides="1" tooltips="1" connect="1" arrows="1" fold="1" page="1" pageScale="1" pageWidth="827" pageHeight="1169" math="0" shadow="0">
      <root>
        <mxCell id="0" />
        <mxCell id="1" parent="0" />
        <mxCell id="Anj1RyAsjDltY7r4P9pl-1" value="Моделирование использования" style="shape=umlFrame;whiteSpace=wrap;html=1;pointerEvents=0;width=190;height=40;" vertex="1" parent="1">
          <mxGeometry y="120" width="960" height="470" as="geometry" />
        </mxCell>
        <mxCell id="Anj1RyAsjDltY7r4P9pl-3" value="Пользователь DSL" style="shape=umlActor;verticalLabelPosition=bottom;verticalAlign=top;html=1;fillColor=#ffcc99;strokeColor=#36393d;" vertex="1" parent="1">
          <mxGeometry x="80" y="275" width="30" height="60" as="geometry" />
        </mxCell>
        <mxCell id="Anj1RyAsjDltY7r4P9pl-4" value="Сильный пользователь&lt;br&gt;(создатель DSL)" style="shape=umlActor;verticalLabelPosition=bottom;verticalAlign=top;html=1;fillColor=#ffcc99;strokeColor=#36393d;" vertex="1" parent="1">
          <mxGeometry x="850" y="300" width="30" height="60" as="geometry" />
        </mxCell>
        <mxCell id="Anj1RyAsjDltY7r4P9pl-11" value="" style="rounded=0;whiteSpace=wrap;html=1;fillColor=#d5e8d4;strokeColor=#82b366;" vertex="1" parent="1">
          <mxGeometry x="190" y="170" width="570" height="290" as="geometry" />
        </mxCell>
        <mxCell id="Anj1RyAsjDltY7r4P9pl-12" value="&lt;b&gt;&lt;u&gt;Инструмент&lt;/u&gt;&lt;/b&gt;" style="text;html=1;strokeColor=none;fillColor=none;align=center;verticalAlign=middle;whiteSpace=wrap;rounded=0;" vertex="1" parent="1">
          <mxGeometry x="449.5" y="170" width="60" height="30" as="geometry" />
        </mxCell>
        <mxCell id="Anj1RyAsjDltY7r4P9pl-13" value="Написать программу" style="ellipse;whiteSpace=wrap;html=1;fillColor=#ffcc99;strokeColor=#36393d;" vertex="1" parent="1">
          <mxGeometry x="202" y="220" width="170" height="50" as="geometry" />
        </mxCell>
        <mxCell id="Anj1RyAsjDltY7r4P9pl-14" value="Запустить программу" style="ellipse;whiteSpace=wrap;html=1;fillColor=#ffcc99;strokeColor=#36393d;" vertex="1" parent="1">
          <mxGeometry x="202" y="400" width="170" height="50" as="geometry" />
        </mxCell>
        <mxCell id="Anj1RyAsjDltY7r4P9pl-15" value="Скомпилировать&lt;br&gt;программу" style="ellipse;whiteSpace=wrap;html=1;fillColor=#ffcc99;strokeColor=#36393d;" vertex="1" parent="1">
          <mxGeometry x="202" y="340" width="170" height="50" as="geometry" />
        </mxCell>
        <mxCell id="Anj1RyAsjDltY7r4P9pl-16" value="Получить AST по коду программы" style="ellipse;whiteSpace=wrap;html=1;fillColor=#ffcc99;strokeColor=#36393d;" vertex="1" parent="1">
          <mxGeometry x="202" y="280" width="170" height="50" as="geometry" />
        </mxCell>
        <mxCell id="Anj1RyAsjDltY7r4P9pl-18" value="Описать&lt;br&gt;семантику языка" style="ellipse;whiteSpace=wrap;html=1;fillColor=#ffcc99;strokeColor=#36393d;" vertex="1" parent="1">
          <mxGeometry x="580" y="280" width="170" height="50" as="geometry" />
        </mxCell>
        <mxCell id="Anj1RyAsjDltY7r4P9pl-19" value="Описать&lt;br&gt;синтаксис языка" style="ellipse;whiteSpace=wrap;html=1;fillColor=#ffcc99;strokeColor=#36393d;" vertex="1" parent="1">
          <mxGeometry x="580" y="340" width="170" height="50" as="geometry" />
        </mxCell>
        <mxCell id="Anj1RyAsjDltY7r4P9pl-20" value="Описать&lt;br&gt;автоматный объект" style="ellipse;whiteSpace=wrap;html=1;fillColor=#ffcc99;strokeColor=#36393d;" vertex="1" parent="1">
          <mxGeometry x="390" y="220" width="170" height="50" as="geometry" />
        </mxCell>
        <mxCell id="Anj1RyAsjDltY7r4P9pl-21" value="" style="curved=1;endArrow=classic;html=1;rounded=0;dashed=1;entryX=1;entryY=0.5;entryDx=0;entryDy=0;exitX=0;exitY=0;exitDx=0;exitDy=0;" edge="1" parent="1" source="Anj1RyAsjDltY7r4P9pl-18" target="Anj1RyAsjDltY7r4P9pl-20">
          <mxGeometry width="50" height="50" relative="1" as="geometry">
            <mxPoint x="420" y="420" as="sourcePoint" />
            <mxPoint x="470" y="370" as="targetPoint" />
          </mxGeometry>
        </mxCell>
        <mxCell id="Anj1RyAsjDltY7r4P9pl-22" value="&quot;include&quot;" style="text;html=1;strokeColor=none;fillColor=none;align=center;verticalAlign=middle;whiteSpace=wrap;rounded=0;" vertex="1" parent="1">
          <mxGeometry x="580" y="240" width="60" height="30" as="geometry" />
        </mxCell>
        <mxCell id="Anj1RyAsjDltY7r4P9pl-23" value="Описать&lt;br&gt;грамматику языка" style="ellipse;whiteSpace=wrap;html=1;fillColor=#ffcc99;strokeColor=#36393d;" vertex="1" parent="1">
          <mxGeometry x="400" y="400" width="170" height="50" as="geometry" />
        </mxCell>
        <mxCell id="Anj1RyAsjDltY7r4P9pl-24" value="" style="curved=1;endArrow=classic;html=1;rounded=0;dashed=1;entryX=1;entryY=0.5;entryDx=0;entryDy=0;exitX=0;exitY=1;exitDx=0;exitDy=0;" edge="1" parent="1" source="Anj1RyAsjDltY7r4P9pl-19" target="Anj1RyAsjDltY7r4P9pl-23">
          <mxGeometry width="50" height="50" relative="1" as="geometry">
            <mxPoint x="615" y="297" as="sourcePoint" />
            <mxPoint x="570" y="255" as="targetPoint" />
          </mxGeometry>
        </mxCell>
        <mxCell id="Anj1RyAsjDltY7r4P9pl-25" value="&quot;include&quot;" style="text;html=1;strokeColor=none;fillColor=none;align=center;verticalAlign=middle;whiteSpace=wrap;rounded=0;" vertex="1" parent="1">
          <mxGeometry x="580" y="400" width="60" height="30" as="geometry" />
        </mxCell>
        <mxCell id="Anj1RyAsjDltY7r4P9pl-26" value="" style="endArrow=none;html=1;rounded=0;entryX=0;entryY=0.5;entryDx=0;entryDy=0;" edge="1" parent="1" source="Anj1RyAsjDltY7r4P9pl-3" target="Anj1RyAsjDltY7r4P9pl-16">
          <mxGeometry width="50" height="50" relative="1" as="geometry">
            <mxPoint x="420" y="410" as="sourcePoint" />
            <mxPoint x="470" y="360" as="targetPoint" />
          </mxGeometry>
        </mxCell>
        <mxCell id="Anj1RyAsjDltY7r4P9pl-31" value="Пользователь&lt;br&gt;программы" style="shape=umlActor;verticalLabelPosition=bottom;verticalAlign=top;html=1;fillColor=#ffcc99;strokeColor=#36393d;" vertex="1" parent="1">
          <mxGeometry x="80" y="395" width="30" height="60" as="geometry" />
        </mxCell>
        <mxCell id="Anj1RyAsjDltY7r4P9pl-32" value="" style="endArrow=none;html=1;rounded=0;entryX=0;entryY=0.5;entryDx=0;entryDy=0;" edge="1" parent="1" source="Anj1RyAsjDltY7r4P9pl-31" target="Anj1RyAsjDltY7r4P9pl-14">
          <mxGeometry width="50" height="50" relative="1" as="geometry">
            <mxPoint x="150" y="283" as="sourcePoint" />
            <mxPoint x="212" y="255" as="targetPoint" />
          </mxGeometry>
        </mxCell>
        <mxCell id="Anj1RyAsjDltY7r4P9pl-33" value="" style="endArrow=none;html=1;rounded=0;entryX=0;entryY=0.5;entryDx=0;entryDy=0;" edge="1" parent="1" source="Anj1RyAsjDltY7r4P9pl-3" target="Anj1RyAsjDltY7r4P9pl-13">
          <mxGeometry width="50" height="50" relative="1" as="geometry">
            <mxPoint x="150" y="283" as="sourcePoint" />
            <mxPoint x="212" y="255" as="targetPoint" />
          </mxGeometry>
        </mxCell>
        <mxCell id="Anj1RyAsjDltY7r4P9pl-34" value="" style="endArrow=none;html=1;rounded=0;entryX=0;entryY=0.5;entryDx=0;entryDy=0;" edge="1" parent="1" source="Anj1RyAsjDltY7r4P9pl-3" target="Anj1RyAsjDltY7r4P9pl-15">
          <mxGeometry width="50" height="50" relative="1" as="geometry">
            <mxPoint x="150" y="295" as="sourcePoint" />
            <mxPoint x="212" y="315" as="targetPoint" />
          </mxGeometry>
        </mxCell>
        <mxCell id="Anj1RyAsjDltY7r4P9pl-36" value="" style="endArrow=none;html=1;rounded=0;entryX=1;entryY=0.5;entryDx=0;entryDy=0;" edge="1" parent="1" source="Anj1RyAsjDltY7r4P9pl-4" target="Anj1RyAsjDltY7r4P9pl-18">
          <mxGeometry width="50" height="50" relative="1" as="geometry">
            <mxPoint x="120" y="435" as="sourcePoint" />
            <mxPoint x="212" y="435" as="targetPoint" />
          </mxGeometry>
        </mxCell>
        <mxCell id="Anj1RyAsjDltY7r4P9pl-37" value="" style="endArrow=none;html=1;rounded=0;entryX=1;entryY=0.5;entryDx=0;entryDy=0;" edge="1" parent="1" source="Anj1RyAsjDltY7r4P9pl-4" target="Anj1RyAsjDltY7r4P9pl-19">
          <mxGeometry width="50" height="50" relative="1" as="geometry">
            <mxPoint x="847" y="328" as="sourcePoint" />
            <mxPoint x="760" y="315" as="targetPoint" />
          </mxGeometry>
        </mxCell>
        <mxCell id="Anj1RyAsjDltY7r4P9pl-38" value="Пользователь&lt;br&gt;инструмента" style="shape=umlActor;verticalLabelPosition=bottom;verticalAlign=top;html=1;fillColor=#ffcc99;strokeColor=#36393d;" vertex="1" parent="1">
          <mxGeometry x="464.5" y="480" width="30" height="60" as="geometry" />
        </mxCell>
        <mxCell id="Anj1RyAsjDltY7r4P9pl-39" value="" style="endArrow=classic;html=1;rounded=0;" edge="1" parent="1" source="Anj1RyAsjDltY7r4P9pl-38" target="Anj1RyAsjDltY7r4P9pl-31">
          <mxGeometry width="50" height="50" relative="1" as="geometry">
            <mxPoint x="460" y="390" as="sourcePoint" />
            <mxPoint x="510" y="340" as="targetPoint" />
            <Array as="points">
              <mxPoint x="20" y="510" />
              <mxPoint x="20" y="425" />
            </Array>
          </mxGeometry>
        </mxCell>
        <mxCell id="Anj1RyAsjDltY7r4P9pl-40" value="" style="endArrow=classic;html=1;rounded=0;" edge="1" parent="1" source="Anj1RyAsjDltY7r4P9pl-38" target="Anj1RyAsjDltY7r4P9pl-4">
          <mxGeometry width="50" height="50" relative="1" as="geometry">
            <mxPoint x="570" y="570" as="sourcePoint" />
            <mxPoint x="850" y="350" as="targetPoint" />
            <Array as="points">
              <mxPoint x="940" y="510" />
              <mxPoint x="940" y="330" />
            </Array>
          </mxGeometry>
        </mxCell>
        <mxCell id="Anj1RyAsjDltY7r4P9pl-42" value="" style="endArrow=classic;html=1;rounded=0;" edge="1" parent="1" source="Anj1RyAsjDltY7r4P9pl-38" target="Anj1RyAsjDltY7r4P9pl-3">
          <mxGeometry width="50" height="50" relative="1" as="geometry">
            <mxPoint x="480" y="410" as="sourcePoint" />
            <mxPoint x="530" y="360" as="targetPoint" />
            <Array as="points">
              <mxPoint x="20" y="510" />
              <mxPoint x="20" y="305" />
            </Array>
          </mxGeometry>
        </mxCell>
      </root>
    </mxGraphModel>
  </diagram>
</mxfile>
